HIERARCHY
ROOT pelvis
{
  OFFSET 0 100 0
  CHANNELS 6 Xposition Yposition Zposition Zrotation Xrotation Yrotation
  JOINT pelvis_right_femur
  {
    OFFSET -10.78128 -3.44521 -0.5502486
    CHANNELS 3 Zrotation Xrotation Yrotation
    JOINT right_femur_tibia
    {
      OFFSET -0.8047443 -44.0398 -0.1307829
      CHANNELS 3 Zrotation Xrotation Yrotation
      JOINT right_tibia_foot
      {
        OFFSET 3.006224 -47.83518 -5
        CHANNELS 3 Zrotation Xrotation Yrotation
        End Site
        {
          OFFSET 0 -5 15
        }
      }
    }
  }
  JOINT pelvis_left_femur
  {
    OFFSET 10.78128 -3.44521 -0.5502486
    CHANNELS 3 Zrotation Xrotation Yrotation
    JOINT left_femur_tibia
    {
      OFFSET 0.8047443 -44.0398 -0.1307829
      CHANNELS 3 Zrotation Xrotation Yrotation
      JOINT left_tibia_foot
      {
        OFFSET -4.370144 -48.10324 -4.275266
        CHANNELS 3 Zrotation Xrotation Yrotation
        End Site
        {
          OFFSET 0 -5 15
        }
      }
    }
  }
  JOINT pelvis_spine1
  {
    OFFSET 0 6.468898 -3.129235
    CHANNELS 3 Zrotation Xrotation Yrotation
    JOINT spine1
    {
      OFFSET 0 23.15396 4.99043
      CHANNELS 3 Zrotation Xrotation Yrotation
      JOINT spine2
      {
        OFFSET 0 20.79997 -5.064912
        CHANNELS 3 Zrotation Xrotation Yrotation
        JOINT neck
        {
          OFFSET 0 14.38658 9.616178
          CHANNELS 3 Zrotation Xrotation Yrotation
          End Site
          {
            OFFSET 0 20 0
          }
        }
      }
      JOINT right_manubrium
      {
        OFFSET -5.722621 16.35077 3.967754
        CHANNELS 3 Zrotation Xrotation Yrotation
        JOINT right_clavicle
        {
          OFFSET -13.16364 1.694482 -4.693211
          CHANNELS 3 Zrotation Xrotation Yrotation
          JOINT right_humerus
          {
            OFFSET -28.5034 -0.3100689 -2.792744
            CHANNELS 3 Zrotation Xrotation Yrotation
            JOINT right_radius
            {
              OFFSET -25.15693 0.02248979 -1.271978
              CHANNELS 3 Zrotation Xrotation Yrotation
              End Site
              {
                OFFSET -15 0 0
              }
            }
          }
        }
      }
      JOINT left_manubrium
      {
        OFFSET 5.722621 16.35077 3.967754
        CHANNELS 3 Zrotation Xrotation Yrotation
        JOINT left_clavicle
        {
          OFFSET 13.16364 1.694482 -4.693211
          CHANNELS 3 Zrotation Xrotation Yrotation
          JOINT left_humerus
          {
            OFFSET 29.39168 -1.063119 -2.237045
            CHANNELS 3 Zrotation Xrotation Yrotation
            JOINT left_radius
            {
              OFFSET 24.59957 -0.9528479 0.9047498
              CHANNELS 3 Zrotation Xrotation Yrotation
              End Site
              {
                OFFSET 15 -0 -0
              }
            }
          }
        }
      }
    }
  }
}
MOTION
Frames: 19
Frame Time: 0.0416666666667
-66.02552 124.9168 263.2472 4.560808 -10.05414 27.5883 5.395178 16.18157 1.458524 -0 24.84623 -0 -11.09169 -10.4588 -2.017289 2.00425 -14.00452 -5.304478 -0 9.710666 -0 -1.755852 0.3287423 15.20227 2.409995 -3.952161 9.113566 -0.5934955 14.75457 -5.494747 0.6570746 20.01744 2.852917 3.889372 -12.52179 1.558942 -0.9253303 -31.97069 11.72168 87.68745 14.44392 -10.00041 -0 0 33.20947 -21.24161 13.26213 10.81702 2.966707 -22.16163 -8.971972 -98.63889 9.97745 41.46626 0 0 -2.535727 2.159146 14.52201 8.371371
-61.56297 124.8739 268.2161 4.417501 -10.1174 26.76998 5.395178 16.18157 1.458524 -0 24.84623 -0 -11.09169 -10.4588 -2.017289 2.00425 -14.00452 -5.304478 -0 9.710666 -0 -1.755852 0.3287423 15.20227 2.409995 -3.952161 9.113566 -0.5934955 14.75457 -5.494747 0.6570746 20.01744 2.852917 3.889372 -12.52179 1.558942 -0.9253303 -31.97069 11.72168 87.68745 14.44392 -10.00041 -0 0 33.20947 -21.24161 13.26213 10.81702 2.966707 -22.16163 -8.971972 -98.63889 9.97745 41.46626 0 0 -2.535727 2.159146 14.52201 8.371371
-57.17096 124.831 273.2474 4.273262 -10.17863 25.95135 5.395178 16.18157 1.458524 -0 24.84623 -0 -11.09169 -10.4588 -2.017289 2.00425 -14.00452 -5.304478 -0 9.710666 -0 -1.755852 0.3287423 15.20227 2.409995 -3.952161 9.113566 -0.5934955 14.75457 -5.494747 0.6570746 20.01744 2.852917 3.889372 -12.52179 1.558942 -0.9253303 -31.97069 11.72168 87.68745 14.44392 -10.00041 -0 0 33.20947 -21.24161 13.26213 10.81702 2.966707 -22.16163 -8.971972 -98.63889 9.97745 41.46626 0 0 -2.535727 2.159146 14.52201 8.371371
-52.85034 124.7881 278.3402 4.128122 -10.23783 25.13241 5.395178 16.18157 1.458524 -0 24.84623 -0 -11.09169 -10.4588 -2.017289 2.00425 -14.00452 -5.304478 -0 9.710666 -0 -1.755852 0.3287423 15.20227 2.409995 -3.952161 9.113566 -0.5934955 14.75457 -5.494747 0.6570746 20.01744 2.852917 3.889372 -12.52179 1.558942 -0.9253303 -31.97069 11.72168 87.68745 14.44392 -10.00041 -0 0 33.20947 -21.24161 13.26213 10.81702 2.966707 -22.16163 -8.971972 -98.63889 9.97745 41.46626 0 0 -2.535727 2.159146 14.52201 8.371371
-48.60199 124.7452 283.4934 3.98211 -10.29498 24.31317 5.395178 16.18157 1.458524 -0 24.84623 -0 -11.09169 -10.4588 -2.017289 2.00425 -14.00452 -5.304478 -0 9.710666 -0 -1.755852 0.3287423 15.20227 2.409995 -3.952161 9.113566 -0.5934955 14.75457 -5.494747 0.6570746 20.01744 2.852917 3.889372 -12.52179 1.558942 -0.9253303 -31.97069 11.72168 87.68745 14.44392 -10.00041 -0 0 33.20947 -21.24161 13.26213 10.81702 2.966707 -22.16163 -8.971972 -98.63889 9.97745 41.46626 0 0 -2.535727 2.159146 14.52201 8.371371
-44.42674 124.7024 288.706 3.835257 -10.35007 23.49364 5.395178 16.18157 1.458524 -0 24.84623 -0 -11.09169 -10.4588 -2.017289 2.00425 -14.00452 -5.304478 -0 9.710666 -0 -1.755852 0.3287423 15.20227 2.409995 -3.952161 9.113566 -0.5934955 14.75457 -5.494747 0.6570746 20.01744 2.852917 3.889372 -12.52179 1.558942 -0.9253303 -31.97069 11.72168 87.68745 14.44392 -10.00041 -0 0 33.20947 -21.24161 13.26213 10.81702 2.966707 -22.16163 -8.971972 -98.63889 9.97745 41.46626 0 0 -2.535727 2.159146 14.52201 8.371371
-40.32543 124.6595 293.977 3.687592 -10.40308 22.67382 5.395178 16.18157 1.458524 -0 24.84623 -0 -11.09169 -10.4588 -2.017289 2.00425 -14.00452 -5.304478 -0 9.710666 -0 -1.755852 0.3287423 15.20227 2.409995 -3.952161 9.113566 -0.5934955 14.75457 -5.494747 0.6570746 20.01744 2.852917 3.889372 -12.52179 1.558942 -0.9253303 -31.97069 11.72168 87.68745 14.44392 -10.00041 -0 0 33.20947 -21.24161 13.26213 10.81702 2.966707 -22.16163 -8.971972 -98.63889 9.97745 41.46626 0 0 -2.535727 2.159146 14.52201 8.371371
-36.29887 124.6166 299.3053 3.539146 -10.45402 21.85374 5.395178 16.18157 1.458524 -0 24.84623 -0 -11.09169 -10.4588 -2.017289 2.00425 -14.00452 -5.304478 -0 9.710666 -0 -1.755852 0.3287423 15.20227 2.409995 -3.952161 9.113566 -0.5934955 14.75457 -5.494747 0.6570746 20.01744 2.852917 3.889372 -12.52179 1.558942 -0.9253303 -31.97069 11.72168 87.68745 14.44392 -10.00041 -0 0 33.20947 -21.24161 13.26213 10.81702 2.966707 -22.16163 -8.971972 -98.63889 9.97745 41.46626 0 0 -2.535727 2.159146 14.52201 8.371371
-32.34786 124.5737 304.6899 3.38995 -10.50286 21.03339 5.395178 16.18157 1.458524 -0 24.84623 -0 -11.09169 -10.4588 -2.017289 2.00425 -14.00452 -5.304478 -0 9.710666 -0 -1.755852 0.3287423 15.20227 2.409995 -3.952161 9.113566 -0.5934955 14.75457 -5.494747 0.6570746 20.01744 2.852917 3.889372 -12.52179 1.558942 -0.9253303 -31.97069 11.72168 87.68745 14.44392 -10.00041 -0 0 33.20947 -21.24161 13.26213 10.81702 2.966707 -22.16163 -8.971972 -98.63889 9.97745 41.46626 0 0 -2.535727 2.159146 14.52201 8.371371
-28.47319 124.5308 310.1297 3.240035 -10.54959 20.21278 5.395178 16.18157 1.458524 -0 24.84623 -0 -11.09169 -10.4588 -2.017289 2.00425 -14.00452 -5.304478 -0 9.710666 -0 -1.755852 0.3287423 15.20227 2.409995 -3.952161 9.113566 -0.5934955 14.75457 -5.494747 0.6570746 20.01744 2.852917 3.889372 -12.52179 1.558942 -0.9253303 -31.97069 11.72168 87.68745 14.44392 -10.00041 -0 0 33.20947 -21.24161 13.26213 10.81702 2.966707 -22.16163 -8.971972 -98.63889 9.97745 41.46626 0 0 -2.535727 2.159146 14.52201 8.371371
-24.67563 124.4879 315.6235 3.089432 -10.5942 19.39193 5.395178 16.18157 1.458524 -0 24.84623 -0 -11.09169 -10.4588 -2.017289 2.00425 -14.00452 -5.304478 -0 9.710666 -0 -1.755852 0.3287423 15.20227 2.409995 -3.952161 9.113566 -0.5934955 14.75457 -5.494747 0.6570746 20.01744 2.852917 3.889372 -12.52179 1.558942 -0.9253303 -31.97069 11.72168 87.68745 14.44392 -10.00041 -0 0 33.20947 -21.24161 13.26213 10.81702 2.966707 -22.16163 -8.971972 -98.63889 9.97745 41.46626 0 0 -2.535727 2.159146 14.52201 8.371371
-20.95594 124.445 321.1704 2.938172 -10.63669 18.57085 5.395178 16.18157 1.458524 -0 24.84623 -0 -11.09169 -10.4588 -2.017289 2.00425 -14.00452 -5.304478 -0 9.710666 -0 -1.755852 0.3287423 15.20227 2.409995 -3.952161 9.113566 -0.5934955 14.75457 -5.494747 0.6570746 20.01744 2.852917 3.889372 -12.52179 1.558942 -0.9253303 -31.97069 11.72168 87.68745 14.44392 -10.00041 -0 0 33.20947 -21.24161 13.26213 10.81702 2.966707 -22.16163 -8.971972 -98.63889 9.97745 41.46626 0 0 -2.535727 2.159146 14.52201 8.371371
-17.31485 124.4021 326.7692 2.786288 -10.67705 17.74954 5.395178 16.18157 1.458524 -0 24.84623 -0 -11.09169 -10.4588 -2.017289 2.00425 -14.00452 -5.304478 -0 9.710666 -0 -1.755852 0.3287423 15.20227 2.409995 -3.952161 9.113566 -0.5934955 14.75457 -5.494747 0.6570746 20.01744 2.852917 3.889372 -12.52179 1.558942 -0.9253303 -31.97069 11.72168 87.68745 14.44392 -10.00041 -0 0 33.20947 -21.24161 13.26213 10.81702 2.966707 -22.16163 -8.971972 -98.63889 9.97745 41.46626 0 0 -2.535727 2.159146 14.52201 8.371371
-13.75309 124.3592 332.4188 2.633812 -10.71526 16.92803 5.395178 16.18157 1.458524 -0 24.84623 -0 -11.09169 -10.4588 -2.017289 2.00425 -14.00452 -5.304478 -0 9.710666 -0 -1.755852 0.3287423 15.20227 2.409995 -3.952161 9.113566 -0.5934955 14.75457 -5.494747 0.6570746 20.01744 2.852917 3.889372 -12.52179 1.558942 -0.9253303 -31.97069 11.72168 87.68745 14.44392 -10.00041 -0 0 33.20947 -21.24161 13.26213 10.81702 2.966707 -22.16163 -8.971972 -98.63889 9.97745 41.46626 0 0 -2.535727 2.159146 14.52201 8.371371
-10.27137 124.3163 338.1181 2.480774 -10.75132 16.10631 5.395178 16.18157 1.458524 -0 24.84623 -0 -11.09169 -10.4588 -2.017289 2.00425 -14.00452 -5.304478 -0 9.710666 -0 -1.755852 0.3287423 15.20227 2.409995 -3.952161 9.113566 -0.5934955 14.75457 -5.494747 0.6570746 20.01744 2.852917 3.889372 -12.52179 1.558942 -0.9253303 -31.97069 11.72168 87.68745 14.44392 -10.00041 -0 0 33.20947 -21.24161 13.26213 10.81702 2.966707 -22.16163 -8.971972 -98.63889 9.97745 41.46626 0 0 -2.535727 2.159146 14.52201 8.371371
-6.870379 124.2734 343.8659 2.327208 -10.78522 15.2844 5.395178 16.18157 1.458524 -0 24.84623 -0 -11.09169 -10.4588 -2.017289 2.00425 -14.00452 -5.304478 -0 9.710666 -0 -1.755852 0.3287423 15.20227 2.409995 -3.952161 9.113566 -0.5934955 14.75457 -5.494747 0.6570746 20.01744 2.852917 3.889372 -12.52179 1.558942 -0.9253303 -31.97069 11.72168 87.68745 14.44392 -10.00041 -0 0 33.20947 -21.24161 13.26213 10.81702 2.966707 -22.16163 -8.971972 -98.63889 9.97745 41.46626 0 0 -2.535727 2.159146 14.52201 8.371371
-3.550797 124.2305 349.6611 2.173146 -10.81695 14.46231 5.395178 16.18157 1.458524 -0 24.84623 -0 -11.09169 -10.4588 -2.017289 2.00425 -14.00452 -5.304478 -0 9.710666 -0 -1.755852 0.3287423 15.20227 2.409995 -3.952161 9.113566 -0.5934955 14.75457 -5.494747 0.6570746 20.01744 2.852917 3.889372 -12.52179 1.558942 -0.9253303 -31.97069 11.72168 87.68745 14.44392 -10.00041 -0 0 33.20947 -21.24161 13.26213 10.81702 2.966707 -22.16163 -8.971972 -98.63889 9.97745 41.46626 0 0 -2.535727 2.159146 14.52201 8.371371
-0.3132833 124.1876 355.5026 2.018621 -10.8465 13.64005 5.395178 16.18157 1.458524 -0 24.84623 -0 -11.09169 -10.4588 -2.017289 2.00425 -14.00452 -5.304478 -0 9.710666 -0 -1.755852 0.3287423 15.20227 2.409995 -3.952161 9.113566 -0.5934955 14.75457 -5.494747 0.6570746 20.01744 2.852917 3.889372 -12.52179 1.558942 -0.9253303 -31.97069 11.72168 87.68745 14.44392 -10.00041 -0 0 33.20947 -21.24161 13.26213 10.81702 2.966707 -22.16163 -8.971972 -98.63889 9.97745 41.46626 0 0 -2.535727 2.159146 14.52201 8.371371
2.841518 124.1447 361.3891 1.863665 -10.87388 12.81764 5.395178 16.18157 1.458524 -0 24.84623 -0 -11.09169 -10.4588 -2.017289 2.00425 -14.00452 -5.304478 -0 9.710666 -0 -1.755852 0.3287423 15.20227 2.409995 -3.952161 9.113566 -0.5934955 14.75457 -5.494747 0.6570746 20.01744 2.852917 3.889372 -12.52179 1.558942 -0.9253303 -31.97069 11.72168 87.68745 14.44392 -10.00041 -0 0 33.20947 -21.24161 13.26213 10.81702 2.966707 -22.16163 -8.971972 -98.63889 9.97745 41.46626 0 0 -2.535727 2.159146 14.52201 8.371371
